<?xml version="1.0" encoding="utf-8"?>
<svg version="1.1" xmlns:xlink="http://www.w3.org/1999/xlink" width="15px" height="14px" xmlns="http://www.w3.org/2000/svg">
  <g transform="matrix(1 0 0 1 -216 -11 )">
    <path d="M 0 11.4545454545455  L 3.4375 11.4545454545455  L 3.4375 12.7272727272727  L 0 12.7272727272727  L 0 11.4545454545455  Z M 4.375 10.1818181818182  L 6.875 10.1818181818182  C 7.04427083333333 10.1818181818182  7.19075520833333 10.2447916666667  7.314453125 10.3707386363636  C 7.43815104166667 10.4966856060606  7.5 10.6458333333333  7.5 10.8181818181818  L 7.5 13.3636363636364  C 7.5 13.5359848484848  7.43815104166667 13.6851325757576  7.314453125 13.8110795454545  C 7.19075520833333 13.9370265151515  7.04427083333333 14  6.875 14  L 4.375 14  C 4.20572916666667 14  4.05924479166667 13.9370265151515  3.935546875 13.8110795454545  C 3.81184895833333 13.6851325757576  3.75 13.5359848484848  3.75 13.3636363636364  L 3.75 10.8181818181818  C 3.75 10.6458333333333  3.81184895833333 10.4966856060606  3.935546875 10.3707386363636  C 4.05924479166667 10.2447916666667  4.20572916666667 10.1818181818182  4.375 10.1818181818182  Z M 0 6.36363636363636  L 8.4375 6.36363636363636  L 8.4375 7.63636363636364  L 0 7.63636363636364  L 0 6.36363636363636  Z M 0 1.27272727272727  L 2.1875 1.27272727272727  L 2.1875 2.54545454545454  L 0 2.54545454545454  L 0 1.27272727272727  Z M 7.8125 11.4545454545455  L 15 11.4545454545455  L 15 12.7272727272727  L 7.8125 12.7272727272727  L 7.8125 11.4545454545455  Z M 3.125 0  L 5.625 0  C 5.79427083333333 0  5.94075520833333 0.0629734848484835  6.064453125 0.188920454545455  C 6.18815104166667 0.314867424242422  6.25 0.464015151515151  6.25 0.636363636363636  L 6.25 3.18181818181818  C 6.25 3.35416666666667  6.18815104166667 3.50331439393939  6.064453125 3.62926136363636  C 5.94075520833333 3.75520833333333  5.79427083333333 3.81818181818182  5.625 3.81818181818182  L 3.125 3.81818181818182  C 2.95572916666667 3.81818181818182  2.80924479166667 3.75520833333333  2.685546875 3.62926136363636  C 2.56184895833333 3.50331439393939  2.5 3.35416666666667  2.5 3.18181818181818  L 2.5 0.636363636363636  C 2.5 0.464015151515151  2.56184895833333 0.314867424242422  2.685546875 0.188920454545455  C 2.80924479166667 0.0629734848484835  2.95572916666667 0  3.125 0  Z M 9.375 5.09090909090909  L 11.875 5.09090909090909  C 12.0442708333333 5.09090909090909  12.1907552083333 5.15388257575758  12.314453125 5.27982954545454  C 12.4381510416667 5.40577651515151  12.5 5.55492424242424  12.5 5.72727272727273  L 12.5 8.27272727272727  C 12.5 8.44507575757576  12.4381510416667 8.59422348484848  12.314453125 8.72017045454545  C 12.1907552083333 8.84611742424242  12.0442708333333 8.90909090909091  11.875 8.90909090909091  L 9.375 8.90909090909091  C 9.20572916666667 8.90909090909091  9.05924479166667 8.84611742424242  8.935546875 8.72017045454545  C 8.81184895833333 8.59422348484848  8.75 8.44507575757576  8.75 8.27272727272727  L 8.75 5.72727272727273  C 8.75 5.55492424242424  8.81184895833333 5.40577651515151  8.935546875 5.27982954545454  C 9.05924479166667 5.15388257575758  9.20572916666667 5.09090909090909  9.375 5.09090909090909  Z M 12.8125 6.36363636363636  L 15 6.36363636363636  L 15 7.63636363636364  L 12.8125 7.63636363636364  L 12.8125 6.36363636363636  Z M 6.5625 1.27272727272727  L 15 1.27272727272727  L 15 2.54545454545454  L 6.5625 2.54545454545454  L 6.5625 1.27272727272727  Z " fill-rule="nonzero" fill="#3377f5" stroke="none" transform="matrix(1 0 0 1 216 11 )" />
  </g>
</svg>