<?xml version="1.0" encoding="utf-8"?>
<svg version="1.1" xmlns:xlink="http://www.w3.org/1999/xlink" width="24px" height="24px" xmlns="http://www.w3.org/2000/svg">
  <g transform="matrix(1 0 0 1 -1296 -844 )">
    <path d="M 10.305 24  L 11.5 20.084  L 10.361 18  L 11.974 18  L 13.639 18  L 12.5 20.084  L 13.695 24  L 24 24  C 24 17  16 19  15 16  L 15 14  C 15.45 13.777  16.737 12.245  16.872 11.048  C 17.226 11.021  17.782 10.696  17.946 9.413  C 18.034 8.724  17.684 8.337  17.472 8.215  C 17.472 8.215  18 7.212  18 6.001  C 18 3.573  17.047 1.501  15 1.501  C 15 1.501  14.289 0.000999999999999446  12 0.000999999999999446  C 7.758 0.000999999999999446  6 2.722  6 6.001  C 6 7.105  6.528 8.215  6.528 8.215  C 6.316 8.337  5.966 8.725  6.054 9.413  C 6.218 10.696  6.774 11.021  7.128 11.048  C 7.263 12.245  8.55 13.777  9 14  L 9 16  C 8 19  0 17  0 24  L 10.305 24  Z " fill-rule="nonzero" fill="#000000" stroke="none" transform="matrix(1 0 0 1 1296 844 )" />
  </g>
</svg>