<?xml version="1.0" encoding="utf-8"?>
<svg version="1.1" xmlns:xlink="http://www.w3.org/1999/xlink" width="575px" height="751px" xmlns="http://www.w3.org/2000/svg">
  <g transform="matrix(1 0 0 1 0 25 )">
    <path d="M 0.5 642.039239814056  C 0.5 642.039239814056  0.5 -20  0.5 -20  C 0.5 -22.4852813742386  2.51471862576143 -24.5  5 -24.5  C 5 -24.5  570 -24.5  570 -24.5  C 572.485281374239 -24.5  574.5 -22.4852813742386  574.5 -20  C 574.5 -20  574.5 642.039239814055  574.5 642.039239814055  C 574.5 644.524521188294  572.485281374239 646.539239814055  570 646.539239814055  C 570 646.539239814055  477.470458537744 646.539239814055  477.470458537744 646.539239814055  C 477.470458537744 646.539239814055  468.226411490244 715.522103844885  468.226411490244 715.522103844885  C 468.226411490244 715.522103844885  458.341384394229 646.539239814055  458.341384394229 646.539239814055  C 458.341384394229 646.539239814055  5 646.539239814055  5 646.539239814055  C 2.51471862576143 646.539239814055  0.5 644.524521188294  0.5 642.039239814056  Z " fill-rule="nonzero" fill="#ffffff" stroke="none" />
    <path d="M 0 642.039239814055  C 0 642.039239814055  0 -20  0 -20  C 0 -22.761423749154  2.23857625084603 -25  5 -25  C 5 -25  570 -25  570 -25  C 572.761423749154 -25  575 -22.761423749154  575 -20  C 575 -20  575 642.039239814055  575 642.039239814055  C 575 644.800663563209  572.761423749154 647.039239814055  570 647.039239814055  C 570 647.039239814055  477.907925407925 647.039239814055  477.907925407925 647.039239814055  C 477.907925407925 647.039239814055  468.243006993007 719.162818313762  468.243006993007 719.162818313762  C 468.243006993007 719.162818313762  457.907925407925 647.039239814055  457.907925407925 647.039239814055  C 457.907925407925 647.039239814055  5 647.039239814055  5 647.039239814055  C 2.23857625084603 647.039239814055  0 644.800663563209  0 642.039239814055  Z M 1 642.039239814055  C 1 644.248378813379  2.79086100067683 646.039239814055  5 646.039239814055  C 5 646.039239814055  458.774843380531 646.039239814055  458.774843380531 646.039239814055  C 458.774843380531 646.039239814055  468.209815987481 711.881389376009  468.209815987481 711.881389376009  C 468.209815987481 711.881389376009  477.032991667564 646.039239814055  477.032991667564 646.039239814055  C 477.032991667564 646.039239814055  570 646.039239814055  570 646.039239814055  C 572.209138999323 646.039239814055  574 644.248378813379  574 642.039239814055  C 574 642.039239814055  574 -20  574 -20  C 574 -22.2091389993232  572.209138999323 -24  570 -24  C 570 -24  5 -24  5 -24  C 2.79086100067683 -24  1 -22.2091389993232  1 -20  C 1 -20  1 642.039239814055  1 642.039239814055  Z " fill-rule="nonzero" fill="#d7d7d7" stroke="none" />
  </g>
</svg>