<?xml version="1.0" encoding="utf-8"?>
<svg version="1.1" xmlns:xlink="http://www.w3.org/1999/xlink" width="70px" height="25px" xmlns="http://www.w3.org/2000/svg">
  <g transform="matrix(1 0 0 1 -446 -161 )">
    <path d="M 447 169  A 7 7 0 0 1 454 162 L 508 162  A 7 7 0 0 1 515 169 L 515 178  A 7 7 0 0 1 508 185 L 454 185  A 7 7 0 0 1 447 178 L 447 169  Z " fill-rule="nonzero" fill="#81d3f8" stroke="none" fill-opacity="0.168627450980392" />
    <path d="M 446.5 169  A 7.5 7.5 0 0 1 454 161.5 L 508 161.5  A 7.5 7.5 0 0 1 515.5 169 L 515.5 178  A 7.5 7.5 0 0 1 508 185.5 L 454 185.5  A 7.5 7.5 0 0 1 446.5 178 L 446.5 169  Z " stroke-width="1" stroke="#0079fe" fill="none" stroke-opacity="0.654901960784314" />
  </g>
</svg>