<?xml version="1.0" encoding="utf-8"?>
<svg version="1.1" xmlns:xlink="http://www.w3.org/1999/xlink" width="11px" height="13px" xmlns="http://www.w3.org/2000/svg">
  <g transform="matrix(1 0 0 1 -14 -323 )">
    <path d="M 10.9941316964286 6.48160730088496  C 10.9941316964286 10.032735619469  8.53639285714287 12.911703539823  5.50471428571429 12.911703539823  C 2.47292522321429 12.911703539823  0.01528459821429 10.0327212389381  0.01528459821429 6.48159292035397  C 0.01528459821429 2.93042146017699  2.47292522321429 0.0515110619469024  5.50471428571429 0.0515110619469024  C 8.53639285714287 0.0515110619469024  10.9941316964286 2.93042146017699  10.9941316964286 6.48160730088496  Z M 10.3720424107143 6.48160730088496  C 10.3720424107143 3.3328174778761  8.1928638392857 0.780186946902646  5.50471428571429 0.780186946902646  C 2.81656473214287 0.780186946902646  0.637361607142854 3.33275995575221  0.637361607142854 6.48160730088496  C 0.637361607142854 9.6303971238938  2.81656473214287 12.1830132743363  5.50471428571429 12.1830132743363  C 8.1928638392857 12.1830132743363  10.3720424107143 9.6303971238938  10.3720424107143 6.48160730088496  Z M 8.16067410714284 7.58910951327434  C 8.32293638392857 7.67803871681415  8.39252120535713 7.90375553097346  8.31660156250001 8.09383738938053  C 8.24100111607144 8.28355973451328  8.04798549107143 8.36505420353982  7.88601785714285 8.27615376106196  L 5.30646875 7.26600774336284  C 5.18308705357143 7.19851991150443  5.11439843749999 7.05173783185841  5.12133482142857 6.90169137168142  C 5.11977566964286 6.88650553097345  5.11382142857143 6.87389380530973  5.11382142857143 6.85826216814159  L 5.11382142857143 2.68424115044247  C 5.11382142857143 2.47448672566373  5.2586875 2.3047389380531  5.43775669642859 2.3047389380531  C 5.61681361607143 2.3047389380531  5.76167968750001 2.47448672566373  5.76167968750001 2.68424115044247  L 5.76167968750001 6.64934181415929  L 8.16067410714284 7.58910951327434  Z " fill-rule="nonzero" fill="#d7d7d7" stroke="none" transform="matrix(1 0 0 1 14 323 )" />
  </g>
</svg>