<?xml version="1.0" encoding="utf-8"?>
<svg version="1.1" xmlns:xlink="http://www.w3.org/1999/xlink" width="13px" height="15px" xmlns="http://www.w3.org/2000/svg">
  <g transform="matrix(1 0 0 1 -153 -323 )">
    <path d="M 12.9930647321429 7.47877765486726  C 12.9930647321429 11.5762334070796  10.0884642857143 14.8981194690266  6.50557142857143 14.8981194690265  C 2.92254799107143 14.8981194690265  0.0180636160714336 11.5762168141593  0.0180636160714336 7.47876106194689  C 0.0180636160714336 3.38125553097345  2.92254799107143 0.0594358407079643  6.50557142857143 0.0594358407079643  C 10.0884642857143 0.0594358407079643  12.9930647321429 3.38125553097345  12.9930647321429 7.47877765486726  Z M 12.2578683035714 7.47877765486726  C 12.2578683035714 3.84555862831857  9.68247544642856 0.900215707964591  6.50557142857143 0.900215707964591  C 3.3286674107143 0.900215707964591  0.753245535714282 3.84549225663717  0.753245535714282 7.47877765486726  C 0.753245535714282 11.1119966814159  3.3286674107143 14.0573230088496  6.50557142857143 14.0573230088496  C 9.68247544642856 14.0573230088496  12.2578683035714 11.1119966814159  12.2578683035714 7.47877765486726  Z M 9.64443303571427 8.75666482300885  C 9.83619754464286 8.85927544247787  9.9184341517857 9.11971792035399  9.82871093750001 9.33904314159292  C 9.73936495535715 9.55795353982301  9.51125558035714 9.65198561946902  9.31983928571428 9.54940818584072  L 6.27128125 8.38385508849559  C 6.12546651785715 8.30598451327434  6.04428906249999 8.13662057522125  6.05248660714285 7.96349004424779  C 6.05064397321429 7.94596792035398  6.04360714285714 7.93141592920353  6.04360714285714 7.91337942477876  L 6.04360714285714 3.09720132743362  C 6.04360714285714 2.85517699115045  6.2148125 2.65931415929204  6.42643973214287 2.65931415929204  C 6.63805245535715 2.65931415929204  6.80925781250001 2.85517699115045  6.80925781250001 3.09720132743362  L 6.80925781250001 7.6723174778761  L 9.64443303571427 8.75666482300885  Z " fill-rule="nonzero" fill="#d7d7d7" stroke="none" transform="matrix(1 0 0 1 153 323 )" />
  </g>
</svg>